<?xml version="1.0" standalone="no"?>
<!DOCTYPE svg PUBLIC "-//W3C//DTD SVG 20010904//EN"
 "http://www.w3.org/TR/2001/REC-SVG-20010904/DTD/svg10.dtd">
<svg version="1.0" xmlns="http://www.w3.org/2000/svg"
 width="3465.000000pt" height="3465.000000pt" viewBox="0 0 3465.000000 3465.000000"
 preserveAspectRatio="xMidYMid meet">

<g transform="translate(0.000000,3465.000000) scale(0.100000,-0.100000)"
fill="#000000" stroke="none">
<path d="M15545 23434 c-127 -14 -296 -70 -391 -130 -171 -107 -370 -286 -522
-467 -18 -22 -81 -91 -139 -154 -59 -63 -134 -150 -168 -193 -33 -44 -87 -114
-120 -157 -68 -90 -264 -287 -367 -371 -154 -124 -277 -205 -418 -274 -225
-109 -620 -284 -869 -384 -123 -49 -326 -153 -377 -193 -12 -9 -57 -42 -100
-75 -44 -32 -126 -107 -184 -165 -89 -91 -113 -122 -156 -207 -78 -151 -106
-250 -139 -489 -9 -66 -27 -190 -40 -275 -28 -182 -41 -312 -55 -545 -24 -383
-82 -652 -220 -1020 -36 -94 -99 -214 -167 -315 -17 -25 -47 -74 -67 -110 -37
-65 -47 -82 -159 -260 -142 -226 -314 -567 -352 -696 -60 -207 -59 -463 4
-729 39 -160 219 -515 436 -854 295 -462 297 -466 375 -696 98 -287 107 -316
124 -396 28 -138 76 -595 76 -729 0 -191 88 -722 145 -873 80 -212 224 -394
455 -573 111 -86 267 -167 425 -220 73 -24 366 -158 465 -212 165 -90 246
-133 335 -178 133 -68 291 -165 381 -234 93 -71 382 -355 463 -455 32 -38 88
-112 125 -164 88 -122 311 -377 456 -519 132 -131 282 -244 390 -294 151 -71
175 -80 239 -95 107 -23 373 -28 537 -9 78 9 165 23 195 31 115 31 220 56 383
91 92 19 223 51 290 70 281 81 677 115 946 80 155 -20 317 -52 390 -77 30 -10
147 -37 259 -59 111 -23 258 -57 325 -77 172 -50 256 -62 466 -69 270 -9 346
5 550 97 178 80 276 145 444 291 17 15 34 28 38 28 9 0 140 154 290 342 267
333 486 569 693 747 136 117 441 293 683 395 32 13 170 79 307 146 138 67 277
135 310 150 33 15 89 46 124 69 35 22 68 41 73 41 4 0 30 15 56 33 26 18 89
59 140 91 77 48 103 72 156 140 68 88 93 141 136 282 15 51 52 139 83 196 81
153 83 158 111 223 44 106 60 198 100 565 8 74 17 164 20 200 29 334 76 712
106 856 43 202 186 497 337 694 119 155 149 203 259 414 65 126 131 252 146
280 58 109 111 295 127 448 20 178 15 269 -24 421 -19 76 -45 168 -59 205 -37
102 -152 337 -211 432 -29 47 -68 110 -86 141 -50 82 -168 261 -189 284 -34
38 -162 286 -190 368 -15 45 -40 109 -55 142 -63 139 -136 394 -159 560 -13
89 -46 471 -56 645 -16 289 -54 570 -102 755 -77 298 -163 431 -421 645 -144
121 -472 289 -787 404 -362 132 -697 295 -890 435 -135 98 -280 244 -420 422
-25 32 -86 108 -137 171 -51 62 -119 147 -152 188 -56 71 -284 302 -451 456
-168 156 -295 230 -478 280 -84 23 -122 27 -286 31 -114 3 -226 1 -285 -7
-136 -16 -360 -58 -466 -86 -49 -13 -175 -46 -280 -73 -104 -28 -260 -72 -345
-99 -192 -62 -287 -83 -359 -81 -31 1 -193 30 -361 64 -168 35 -345 71 -395
80 -81 14 -320 70 -600 141 -175 44 -330 64 -510 68 -93 2 -188 2 -210 0z
m295 -4177 c36 -10 82 -29 102 -42 49 -32 118 -132 161 -230 93 -217 139 -327
167 -405 17 -47 46 -112 65 -145 18 -33 47 -94 63 -135 17 -42 39 -91 50 -110
12 -19 43 -91 70 -160 27 -69 60 -147 72 -175 12 -27 48 -115 80 -195 127
-320 191 -473 270 -645 116 -254 236 -546 261 -634 12 -41 39 -116 61 -166 47
-104 139 -326 208 -500 26 -66 54 -136 63 -155 9 -19 45 -100 79 -180 l63
-145 72 -43 72 -43 41 27 c71 47 138 155 198 319 17 44 43 103 59 130 28 48
68 157 93 254 7 25 22 58 35 75 13 17 46 78 75 136 28 58 64 125 80 150 16 25
36 77 46 115 27 115 55 197 81 236 13 19 42 91 66 160 26 77 52 134 69 152 14
15 31 42 38 60 7 17 19 47 27 65 8 18 21 56 30 85 8 28 25 64 37 78 24 28 48
90 91 233 15 51 39 105 55 125 30 37 55 105 84 228 10 40 28 84 41 99 37 43
62 102 93 219 124 462 138 509 193 617 17 34 43 92 56 128 37 98 90 213 134
290 40 68 41 69 119 99 69 27 99 32 237 41 193 12 933 13 1098 1 92 -7 135
-15 187 -36 88 -35 94 -44 69 -92 -34 -67 -77 -99 -176 -128 -202 -60 -248
-82 -325 -157 -127 -123 -155 -219 -170 -578 -11 -269 -12 -3440 -1 -3855 9
-346 22 -410 96 -510 72 -96 142 -135 333 -186 128 -33 225 -73 270 -109 l41
-33 -17 -30 c-27 -46 -85 -90 -151 -114 -55 -20 -82 -22 -343 -25 -714 -8
-1775 11 -1861 32 -37 9 -63 26 -110 71 -60 57 -61 59 -42 75 72 57 317 138
584 193 77 16 89 16 148 2 53 -13 75 -13 135 -3 93 16 125 43 157 131 58 162
54 15 55 2477 1 1884 -1 2264 -12 2277 -11 13 -114 67 -128 67 -6 0 -32 -101
-39 -150 -17 -118 -88 -308 -157 -423 -26 -44 -80 -105 -152 -175 -89 -85
-121 -123 -155 -185 -23 -44 -58 -99 -77 -124 -19 -24 -37 -57 -40 -71 -22
-103 -61 -224 -84 -260 -16 -23 -45 -95 -65 -160 -20 -64 -54 -146 -75 -182
-46 -77 -50 -87 -85 -210 -15 -52 -36 -104 -46 -115 -35 -40 -64 -125 -109
-329 -6 -26 -21 -62 -34 -80 -13 -17 -43 -89 -66 -161 -23 -71 -52 -144 -65
-161 -21 -27 -77 -179 -106 -287 -6 -22 -22 -55 -35 -72 -13 -17 -46 -79 -73
-136 -28 -57 -59 -117 -71 -134 -11 -16 -38 -84 -60 -150 -21 -66 -51 -151
-65 -190 -15 -38 -42 -121 -61 -183 -19 -63 -48 -143 -64 -178 -16 -35 -52
-137 -80 -227 -93 -289 -110 -341 -147 -427 -20 -47 -47 -99 -59 -117 -12 -18
-39 -86 -59 -151 -20 -64 -46 -127 -57 -139 -11 -11 -46 -35 -79 -53 l-59 -31
-68 20 c-90 27 -120 59 -144 153 -20 79 -17 155 8 196 8 12 31 33 52 46 20 13
54 40 76 59 37 32 38 35 28 68 -11 35 -38 145 -52 214 -11 50 -45 131 -59 140
-19 11 -47 77 -81 190 -22 71 -44 125 -65 152 -19 25 -46 86 -70 160 -21 65
-44 125 -51 133 -21 25 -60 121 -94 231 -17 57 -40 113 -50 124 -30 32 -67
122 -91 220 -12 50 -28 97 -35 105 -19 23 -68 133 -97 221 -14 42 -40 100 -57
129 -35 60 -76 175 -91 257 -10 51 -29 98 -88 208 -66 126 -128 263 -162 359
-21 60 -52 130 -68 155 -16 25 -48 99 -70 164 -23 65 -50 131 -61 147 -25 35
-60 127 -90 235 -12 44 -37 107 -55 140 -18 33 -50 112 -69 175 -20 63 -47
131 -60 150 -26 40 -48 107 -82 258 -13 57 -33 117 -44 133 -12 15 -44 76 -71
134 -35 72 -59 110 -78 121 -15 9 -45 43 -67 75 -29 43 -47 60 -69 65 -48 10
-85 33 -97 59 -7 16 -20 25 -34 25 -26 0 -71 -50 -54 -60 8 -5 8 -15 0 -34
-13 -34 -11 -38 46 -73 49 -30 87 -87 162 -243 51 -106 60 -145 68 -290 8
-144 -6 -237 -46 -300 -39 -61 -78 -167 -95 -259 -31 -161 -35 -357 -35 -1521
0 -1418 3 -1464 102 -1749 56 -160 100 -243 172 -324 127 -143 256 -232 447
-310 42 -17 96 -63 140 -118 l30 -39 -30 -44 c-81 -117 -62 -115 -971 -115
-495 0 -767 3 -810 11 -73 12 -106 34 -158 107 l-33 46 47 42 c68 61 142 97
284 138 69 20 143 45 166 56 26 12 62 19 103 19 51 0 65 -4 81 -22 11 -13 38
-43 59 -68 l40 -45 90 -3 c84 -4 91 -2 114 20 15 15 29 47 36 79 l12 54 -43
40 c-41 38 -48 42 -138 54 -119 16 -132 26 -114 84 7 23 27 105 44 182 17 77
42 183 55 235 61 241 59 173 58 1935 0 886 -3 1783 -7 1995 -7 371 -8 386 -29
408 -11 12 -25 22 -30 22 -5 0 -22 11 -37 24 -56 46 -297 130 -530 183 l-125
28 -42 65 c-24 35 -43 68 -43 72 0 15 81 61 123 70 86 19 247 23 847 23 564 0
620 -2 680 -18z"/>
</g>
</svg>
